# xmcd
#
# Track frame offsets:
# 150
# 11858
# 26183
# 37221
# 50061
# 63318
# 75537
# 85387
# 94377
# 109797
# 122735
# 134092
# 150310
# 164472
# 175925
# 190654
# 206027
# 214388
# 228227
# 262116
#
# Disc length: 3656 seconds
#
#
# Revision: 0
# Processed by: cddbd v1.5.2PL0 Copyright (c) Steve Scherf et al.
# Submitted via: FreeRIP 2.96 
#
DISCID=290e4614
DTITLE=Show de Modas Vol.2 - 
DYEAR=1900
DGENRE=
TTITLE0=Seleção de Pagodes - Luiz Rodrigo e Carlos Cesar
TTITLE1=Sistema Bruto - João Carreiro e Capataz
TTITLE2=Sou Violeiro - Brenno Reis e Marco Viola
TTITLE3=São José - João Carreiro e Capataz
TTITLE4=Viola Abençoada - Brenno Reis e Marco Viola
TTITLE5=Viola na Cachola - Mayck e Lyan
TTITLE6=Viola no Peito - Brenno Reis e Marco Viola
TTITLE7=De Campo Grande à Cuiabá
TTITLE8=Bruto, Rústico e Sistemático - João Carreiro e Capataz
TTITLE9=O Preço da Glória - Mayck e Lyan
TTITLE10=Rei Sem Coroa - Ouro Preto e Boiadeiro
TTITLE11=Pescaria - Ronaldo Viola e Praiano
TTITLE12=Rei da Pecúaria - Ronaldo Viola e Praiano
TTITLE13=Desabafo de Paixão - Jads e Jadson
TTITLE14=Nove e Nove - Ouro Preto e Boiadeiro
TTITLE15=Minha Prisão - Zé Mulato e Cassiano
TTITLE16=Pagodeira - Jads e Jadson
TTITLE17=Os Pagodes Que Eu Conheço - Ouro Preto e Boiadeiro
TTITLE18=Nóis é Jeca Mais é Jóia - Luis Goiano e Girsel da Viola
TTITLE19=Proparoesquisitona - Jads e Jadson
EXTD=
EXTT0=
EXTT1=
EXTT2=
EXTT3=
EXTT4=
EXTT5=
EXTT6=
EXTT7=
EXTT8=
EXTT9=
EXTT10=
EXTT11=
EXTT12=
EXTT13=
EXTT14=
EXTT15=
EXTT16=
EXTT17=
EXTT18=
EXTT19=
PLAYORDER=
